<svg width="32" height="32" viewBox="0 0 32 32" fill="none" xmlns="http://www.w3.org/2000/svg">
<path d="M31.7542 15.88C31.7542 24.6561 24.6699 31.7404 15.8938 31.7404C7.11766 31.7404 0.0333252 24.6561 0.0333252 15.88C0.0333252 7.10386 7.11766 0.0195312 15.8938 0.0195312C24.6699 0.0195312 31.7542 7.10386 31.7542 15.88Z" fill="#FFDD67"/>
<path d="M31.6485 5.94074C31.3841 4.5133 30.5911 3.3502 29.2694 2.98012C27.842 2.61004 26.5731 3.13872 25.3572 4.40756C24.6699 2.50431 23.6125 1.07687 21.9207 0.336713C20.2289 -0.403441 18.5372 0.125241 17.4798 1.44694C16.3696 2.82152 15.9466 4.98911 17.1097 7.79112C18.22 10.4345 23.1367 15.7213 23.2953 15.8799C23.5068 15.7742 29.0051 12.3378 30.3268 10.646C31.6485 9.00709 31.9128 7.36818 31.6485 5.94074ZM14.3077 1.44694C13.2504 0.125241 11.5586 -0.403441 9.86679 0.336713C8.17501 1.07687 7.11765 2.50431 6.43036 4.40756C5.16153 3.19159 3.89269 2.61004 2.46525 3.03299C1.19642 3.40307 0.350525 4.56616 0.0861845 5.9936C-0.178156 7.36818 0.139053 9.05996 1.40789 10.6989C2.78246 12.3378 8.28075 15.7742 8.49222 15.8799C8.65082 15.7213 13.5676 10.4345 14.6778 7.79112C15.8409 4.98911 15.4179 2.87438 14.3077 1.44694Z" fill="#F46767"/>
<path d="M24.8813 19.1046C24.8813 18.6817 24.617 18.153 23.9297 17.9944C22.0793 17.6243 19.383 17.3071 15.8937 17.3071C12.4044 17.3071 9.70814 17.6772 7.85775 17.9944C7.1176 18.153 6.90613 18.6817 6.90613 19.1046C6.90613 22.964 9.86674 26.8234 15.8937 26.8234C21.9207 26.7705 24.8813 22.9112 24.8813 19.1046Z" fill="#664E27"/>
<path d="M22.6081 19.2108C21.445 18.9993 19.013 18.6821 15.8938 18.6821C12.7746 18.6821 10.3426 18.9993 9.17954 19.2108C8.49226 19.3165 8.43939 19.5809 8.49226 20.0038C8.54513 20.2153 8.54513 20.5325 8.65086 20.8497C8.70373 21.1669 8.80947 21.3255 9.33815 21.2727C10.3426 21.1669 21.4978 21.1669 22.5023 21.2727C23.031 21.3255 23.0839 21.1669 23.1896 20.8497C23.2425 20.5325 23.2953 20.2682 23.3482 20.0038C23.3482 19.5809 23.2953 19.3165 22.6081 19.2108Z" fill="white"/>
</svg>
