<svg width="32" height="32" viewBox="0 0 32 32" fill="none" xmlns="http://www.w3.org/2000/svg">
<path d="M15.8771 31.7542C24.6458 31.7542 31.7542 24.6458 31.7542 15.8771C31.7542 7.10842 24.6458 0 15.8771 0C7.10842 0 0 7.10842 0 15.8771C0 24.6458 7.10842 31.7542 15.8771 31.7542Z" fill="#FFDD67"/>
<path d="M9.79084 16.1947C11.2523 16.1947 12.437 15.01 12.437 13.5485C12.437 12.0871 11.2523 10.9023 9.79084 10.9023C8.32939 10.9023 7.14465 12.0871 7.14465 13.5485C7.14465 15.01 8.32939 16.1947 9.79084 16.1947Z" fill="#664E27"/>
<path d="M21.9633 16.1947C23.4248 16.1947 24.6095 15.01 24.6095 13.5485C24.6095 12.0871 23.4248 10.9023 21.9633 10.9023C20.5019 10.9023 19.3171 12.0871 19.3171 13.5485C19.3171 15.01 20.5019 16.1947 21.9633 16.1947Z" fill="#664E27"/>
<path d="M19.5289 24.345H12.2254C11.4315 24.345 11.4315 22.228 12.2254 22.228H19.4759C20.3227 22.228 20.3227 24.345 19.5289 24.345Z" fill="#664E27"/>
</svg>
