<svg width="32" height="32" viewBox="0 0 32 32" fill="none" xmlns="http://www.w3.org/2000/svg">
<path d="M15.8771 31.7542C24.6458 31.7542 31.7542 24.6458 31.7542 15.8771C31.7542 7.10842 24.6458 0 15.8771 0C7.10842 0 0 7.10842 0 15.8771C0 24.6458 7.10842 31.7542 15.8771 31.7542Z" fill="#FFDD67"/>
<path d="M9.79084 15.6654C11.2523 15.6654 12.437 14.4807 12.437 13.0192C12.437 11.5578 11.2523 10.373 9.79084 10.373C8.32939 10.373 7.14465 11.5578 7.14465 13.0192C7.14465 14.4807 8.32939 15.6654 9.79084 15.6654Z" fill="#664E27"/>
<path d="M21.9633 15.6654C23.4248 15.6654 24.6095 14.4807 24.6095 13.0192C24.6095 11.5578 23.4248 10.373 21.9633 10.373C20.5019 10.373 19.3171 11.5578 19.3171 13.0192C19.3171 14.4807 20.5019 15.6654 21.9633 15.6654Z" fill="#664E27"/>
<path d="M11.1139 24.1334C14.1835 21.5931 17.5706 21.5931 20.6402 24.1334C21.0107 24.451 21.3282 23.9217 21.0636 23.4454C20.111 21.646 18.2586 20.0054 15.8771 20.0054C13.4955 20.0054 11.5902 21.646 10.6905 23.4454C10.4259 23.9217 10.7435 24.451 11.1139 24.1334Z" fill="#664E27"/>
</svg>
