<svg width="424" height="405" viewBox="0 0 424 405" fill="none" xmlns="http://www.w3.org/2000/svg">
<path fill-rule="evenodd" clip-rule="evenodd" d="M195.554 10.9765C201.891 -3.2699 222.11 -3.26989 228.447 10.9765L272.759 110.601C275.093 115.847 278.767 120.386 283.413 123.762C288.059 127.137 293.511 129.229 299.222 129.827L407.663 141.184C423.17 142.808 429.419 162.038 417.828 172.467L336.773 245.396C332.504 249.237 329.322 254.134 327.547 259.596C325.773 265.056 325.468 270.889 326.664 276.505L349.373 383.148C352.621 398.398 336.263 410.283 322.762 402.482L228.355 347.931C223.383 345.058 217.743 343.545 212.001 343.545C206.258 343.545 200.618 345.058 195.646 347.931L101.239 402.482C87.7386 410.283 71.3805 398.398 74.6279 383.148L97.3369 276.505C98.5331 270.889 98.2277 265.056 96.4539 259.596C94.6789 254.134 91.4972 249.237 87.2286 245.396L6.1735 172.467C-5.41747 162.038 0.830856 142.808 16.3381 141.184L124.779 129.827C130.49 129.229 135.943 127.137 140.588 123.762C145.234 120.386 148.908 115.847 151.242 110.601L195.554 10.9765Z" fill="#F4C01E"/>
</svg>
