<svg width="62" height="64" viewBox="0 0 62 64" fill="none" xmlns="http://www.w3.org/2000/svg">
<path d="M0.124268 33.5636C0.124268 30.3102 2.76162 27.6729 6.01498 27.6729C9.26834 27.6729 11.9057 30.3102 11.9057 33.5636V57.1264C11.9057 60.3797 9.26834 63.0171 6.01498 63.0171C2.76162 63.0171 0.124268 60.3797 0.124268 57.1264V33.5636Z" fill="#555"/>
<path d="M15.8329 32.9092V54.2359C15.8329 57.2111 17.5137 59.9306 20.1746 61.2611L20.3704 61.3589C22.5516 62.4495 24.9568 63.0174 27.3955 63.0174H48.6654C52.4095 63.0174 55.6329 60.3748 56.3673 56.7033L61.0798 33.1405C62.0518 28.2804 58.3344 23.746 53.3779 23.746H39.3957V8.03739C39.3957 3.69959 35.8794 0.183105 31.5415 0.183105C29.3726 0.183105 27.6143 1.94137 27.6143 4.11025V6.72835C27.6143 10.1272 26.5119 13.4344 24.4726 16.1535L18.9746 23.4841C16.9353 26.2032 15.8329 29.5104 15.8329 32.9092Z" fill="#F4C01E"/>
</svg>
