<svg width="62" height="64" viewBox="0 0 62 64" fill="none" xmlns="http://www.w3.org/2000/svg">
<path d="M61.235 29.6366C61.235 32.89 58.5976 35.5273 55.3443 35.5273C52.0909 35.5273 49.4536 32.89 49.4536 29.6366V6.07378C49.4536 2.82054 52.0909 0.183071 55.3443 0.183071C58.5976 0.183071 61.235 2.82054 61.235 6.07378L61.235 29.6366Z" fill="#555"/>
<path d="M45.5264 30.2915V8.9648C45.5264 5.98959 43.8456 3.27005 41.1846 1.93954L40.9889 1.84175C38.8077 0.751181 36.4025 0.183315 33.9638 0.183315L12.6939 0.183315C8.94976 0.183315 5.72636 2.82589 4.99198 6.49737L0.279412 30.0602C-0.692556 34.9203 3.02488 39.4547 7.98132 39.4547H21.9635L21.9635 55.1633C21.9635 59.5011 25.4799 63.0176 29.8178 63.0176C31.9867 63.0176 33.7449 61.2593 33.7449 59.0904V56.4723C33.7449 53.0735 34.8473 49.7663 36.8867 47.0472L42.3847 39.7166C44.424 36.9974 45.5264 33.6903 45.5264 30.2915Z" fill="#F4C01E"/>
</svg>
